<svg width="69" height="81" viewBox="0 0 69 81" fill="none" xmlns="http://www.w3.org/2000/svg">
<path d="M58.3718 80.6877V74.1763H6.59912V80.6877H58.3718ZM23.4949 78.0017C23.4949 78.5986 23.0201 78.9445 22.118 78.9445H20.3342V75.4989H22.0163C22.8777 75.4989 23.3186 75.8584 23.3186 76.3942C23.3186 76.7401 23.1422 77.0047 22.8641 77.1539C23.2507 77.276 23.4949 77.5744 23.4949 78.0085V78.0017ZM26.5336 77.8322L27.3068 78.9378H26.4522L25.7875 77.9746H25.055V78.9378H24.2546V75.4921H25.7468C26.6692 75.4921 27.2458 75.9669 27.2458 76.7401C27.2458 77.2556 26.988 77.6355 26.5336 77.8254V77.8322ZM31.0848 77.4252C31.0848 78.4426 30.5015 78.9988 29.5248 78.9988C28.5481 78.9988 27.9648 78.4358 27.9648 77.4252V75.4921H28.7651V77.3913C28.7651 78.0492 29.05 78.3137 29.5316 78.3137C30.0131 78.3137 30.298 78.0424 30.298 77.3913V75.4921H31.0848V77.4252ZM32.6041 76.4688C32.6041 77.1064 34.6051 76.6655 34.6051 77.9339C34.6051 78.5104 34.1303 78.9988 33.14 78.9988C32.5906 78.9988 32.0412 78.836 31.736 78.5986L32.0073 77.9949C32.2989 78.2052 32.733 78.3544 33.1468 78.3544C33.6216 78.3544 33.8115 78.1984 33.8115 77.9882C33.8115 77.3438 31.8038 77.7847 31.8038 76.5095C31.8038 75.9194 32.2786 75.4379 33.2553 75.4379C33.6894 75.4379 34.1303 75.5396 34.4491 75.7431L34.2049 76.3467C33.8861 76.1636 33.5537 76.0754 33.2485 76.0754C32.7737 76.0754 32.5906 76.2518 32.5906 76.4688H32.6041ZM35.9073 76.4688C35.9073 77.1064 37.9082 76.6655 37.9082 77.9339C37.9082 78.5104 37.4335 78.9988 36.4432 78.9988C35.8938 78.9988 35.3444 78.836 35.0391 78.5986L35.3105 77.9949C35.6021 78.2052 36.0362 78.3544 36.45 78.3544C36.9248 78.3544 37.1147 78.1984 37.1147 77.9882C37.1147 77.3438 35.1138 77.7847 35.1138 76.5095C35.1138 75.9194 35.5886 75.4379 36.5653 75.4379C36.9994 75.4379 37.4402 75.5396 37.759 75.7431L37.5149 76.3467C37.1961 76.1636 36.8637 76.0754 36.5585 76.0754C36.0837 76.0754 35.9006 76.2518 35.9006 76.4688H35.9073ZM41.2996 78.9378H38.634V75.4921H41.2386V76.1297H39.4276V76.8758H41.0283V77.493H39.4276V78.2934H41.3064V78.931L41.2996 78.9378ZM44.6367 78.9378H42.1135V75.4921H42.9071V78.2866H44.6367V78.9378ZM26.4319 76.7401C26.4319 76.3603 26.1877 76.1365 25.6993 76.1365H25.0482V77.337H25.6993C26.1877 77.337 26.4319 77.1132 26.4319 76.7334V76.7401ZM22.6878 77.9136C22.6878 77.6219 22.4639 77.4862 22.0502 77.4862H21.121V78.3409H22.0502C22.4639 78.3409 22.6878 78.212 22.6878 77.9203V77.9136ZM22.5182 76.496C22.5182 76.2247 22.3079 76.089 21.9145 76.089H21.121V76.9029H21.9145C22.3012 76.9029 22.5182 76.7673 22.5182 76.496Z" fill="white"/>
<path d="M4.86959 62.8624V66.6539L1.7631 62.8624H0.569336V69.1093H2.00049V65.3177L5.11377 69.1093H6.30075V62.8624H4.86959ZM9.49542 67.9494V66.5047H12.3984V65.3788H9.49542V64.0222H12.7783V62.8624H8.05748V69.1093H12.8936V67.9494H9.49542ZM14.379 69.1093H17.221C19.2626 69.1093 20.6666 67.8748 20.6666 65.9824C20.6666 64.0901 19.2626 62.8556 17.221 62.8556H14.379V69.1025V69.1093ZM15.8237 67.9223V64.0494H17.1464C18.3876 64.0494 19.2015 64.7887 19.2015 65.9892C19.2015 67.1898 18.3876 67.9291 17.1464 67.9291H15.8237V67.9223ZM23.4679 67.9494V66.5047H26.3709V65.3788H23.4679V64.0222H26.7507V62.8624H22.0299V69.1093H26.866V67.9494H23.4679ZM33.8862 69.1093L32.4821 67.1016C33.2961 66.7557 33.7708 66.0638 33.7708 65.1278C33.7708 63.7238 32.7263 62.8624 31.0578 62.8624H28.3514V69.1093H29.7962V67.3661H31.1256L32.3329 69.1093H33.8862ZM32.3058 65.1278C32.3058 65.8061 31.8581 66.2198 30.9764 66.2198H29.7962V64.0426H30.9764C31.8581 64.0426 32.3058 64.4428 32.3058 65.1346V65.1278ZM35.202 69.1093H39.7804V67.9291H36.6467V62.8556H35.202V69.1025V69.1093ZM45.8984 69.1093H47.4177L44.6232 62.8624H43.1921L40.4044 69.1093H41.883L42.4392 67.7731H45.3422L45.8984 69.1093ZM42.9072 66.6743L43.8975 64.28L44.8878 66.6743H42.9072ZM52.6676 62.8624V66.6539L49.5611 62.8624H48.3673V69.1093H49.7985V65.3177L52.9117 69.1093H54.0987V62.8624H52.6676ZM55.8622 69.1093H58.7042C60.7458 69.1093 62.1498 67.8748 62.1498 65.9824C62.1498 64.0901 60.7458 62.8556 58.7042 62.8556H55.8622V69.1025V69.1093ZM57.307 67.9223V64.0494H58.6296C59.8708 64.0494 60.6848 64.7887 60.6848 65.9892C60.6848 67.1898 59.8708 67.9291 58.6296 67.9291H57.307V67.9223ZM65.5548 69.2178C67.3386 69.2178 68.2068 68.3225 68.2068 67.2779C68.2068 64.9854 64.5713 65.779 64.5713 64.6259C64.5713 64.2325 64.9036 63.9137 65.7582 63.9137C66.3144 63.9137 66.9113 64.0765 67.4878 64.4021L67.9355 63.3033C67.3522 62.937 66.5518 62.7471 65.765 62.7471C63.988 62.7471 63.1333 63.6288 63.1333 64.6937C63.1333 67.0134 66.7689 66.213 66.7689 67.3797C66.7689 67.7663 66.423 68.0512 65.5615 68.0512C64.8087 68.0512 64.0286 67.7866 63.4996 67.4L63.0112 68.4921C63.5674 68.9194 64.5645 69.2178 65.5548 69.2178Z" fill="white"/>
<path d="M4.85603 54.6551V57.1172H2.01406V54.6551H0.569336V60.902H2.01406V58.3381H4.85603V60.902H6.30075V54.6551H4.85603ZM10.7706 61.0105C12.5477 61.0105 13.599 59.9931 13.599 58.155V54.6551H12.1678V58.1007C12.1678 59.2877 11.6591 59.7761 10.7774 59.7761C9.8956 59.7761 9.3869 59.2877 9.3869 58.1007V54.6551H7.94217V58.155C7.94217 59.9931 8.9935 61.0105 10.7706 61.0105ZM15.2472 60.902H16.6919V54.6551H15.2472V60.902ZM20.4902 61.0105C22.2741 61.0105 23.1423 60.1152 23.1423 59.0707C23.1423 56.7781 19.5067 57.5717 19.5067 56.4186C19.5067 56.0252 19.8391 55.7064 20.6937 55.7064C21.2499 55.7064 21.8468 55.8692 22.4233 56.1948L22.871 55.096C22.2877 54.7297 21.4873 54.5398 20.7005 54.5398C18.9234 54.5398 18.0688 55.4215 18.0688 56.4864C18.0688 58.8061 21.7044 58.0058 21.7044 59.1724C21.7044 59.559 21.3584 59.8439 20.497 59.8439C19.7441 59.8439 18.9641 59.5794 18.4351 59.1927L17.9467 60.2848C18.5029 60.7121 19.5 61.0105 20.4902 61.0105ZM31.3358 54.6551L29.4095 59.1181L27.5104 54.6551H25.9503L28.6431 60.902H30.0743L32.7806 54.6551H31.3426H31.3358ZM37.7659 60.902H39.2852L36.4907 54.6551H35.0596L32.2719 60.902H33.7505L34.3067 59.5658H37.2097L37.7659 60.902ZM34.7747 58.467L35.765 56.0727L36.7553 58.467H34.7747ZM44.4604 54.6551V58.4466L41.354 54.6551H40.1602V60.902H41.5913V57.1104L44.7046 60.902H45.8916V54.6551H44.4604ZM54.2886 54.6551V57.1172H51.4467V54.6551H50.0019V60.902H51.4467V58.3381H54.2886V60.902H55.7334V54.6551H54.2886ZM58.867 59.7422V58.2974H61.77V57.1715H58.867V55.8149H62.1498V54.6551H57.429V60.902H62.2651V59.7422H58.867ZM64.985 60.902H66.4297V55.8285H68.4306V54.6483H62.9841V55.8285H64.985V60.902Z" fill="white"/>
<path d="M56.0318 0H37.7863C36.4569 0 35.3784 1.17341 35.3784 2.61814V16.7941H29.7691V0H18.2181C11.8355 0 6.66028 5.17523 6.66028 11.551V38.6345C6.66028 45.017 11.8355 50.1855 18.2113 50.1855C24.5871 50.1855 29.7623 45.0103 29.7623 38.6345V31.6957H35.3716V47.5673C35.3716 49.0121 36.4501 50.1855 37.7795 50.1855H56.0251C57.3545 50.1855 58.4329 49.0121 58.4329 47.5673V2.61814C58.4329 1.17341 57.3545 0 56.0251 0H56.0318ZM57.1442 47.5673C57.1442 48.2999 56.6423 48.8968 56.0318 48.8968H37.7863C37.169 48.8968 36.6739 48.2999 36.6739 47.5673V30.407H25.5027L41.3676 16.8076H36.6807V2.61814C36.6807 1.8856 37.1826 1.28872 37.7931 1.28872H56.0386C56.6491 1.28872 57.151 1.8856 57.151 2.61814V47.5606L57.1442 47.5673Z" fill="white"/>
</svg>
