<svg width="136" height="55" viewBox="0 0 136 55" fill="none" xmlns="http://www.w3.org/2000/svg">
<path d="M68.5299 21.8551V25.9037L65.256 21.8551H64V28.5216H65.4959V24.4731L68.7698 28.5216H70.0116V21.8551H68.5158H68.5299ZM73.3985 27.277V25.732H76.4467V24.5303H73.3985V23.0854H76.8559V21.8408H71.8885V28.5073H76.9829V27.2627H73.3985V27.277ZM78.5352 28.5216H81.5269C83.6719 28.5216 85.1537 27.2055 85.1537 25.1884C85.1537 23.1713 83.686 21.8551 81.5269 21.8551H78.5352V28.5216ZM80.0593 27.2627V23.1283H81.4422C82.7405 23.1283 83.6014 23.9152 83.6014 25.1884C83.6014 26.4616 82.7405 27.2484 81.4422 27.2484H80.0593V27.2627ZM88.103 27.2913V25.7463H91.1512V24.5446H88.103V23.0997H91.5604V21.8551H86.5931V28.5216H91.6875V27.277H88.103V27.2913ZM99.0538 28.5359L97.5862 26.39C98.447 26.0181 98.9409 25.2885 98.9409 24.2871C98.9409 22.7993 97.8402 21.8694 96.0903 21.8694H93.2398V28.5359H94.7638V26.6762H96.1609L97.431 28.5359H99.068H99.0538ZM97.3886 24.2871C97.3886 25.0167 96.9229 25.4459 95.9916 25.4459H94.7497V23.1283H95.9916C96.9229 23.1283 97.3886 23.5575 97.3886 24.2871ZM100.437 28.5359H105.249V27.277H101.947V21.8694H100.423V28.5359H100.437ZM111.684 28.5359H113.279L110.343 21.8694H108.847L105.912 28.5359H107.465L108.043 27.1053H111.091L111.67 28.5359H111.684ZM108.537 25.9323L109.581 23.3858L110.626 25.9323H108.537ZM118.796 21.8694V25.918L115.522 21.8694H114.266V28.5359H115.762V24.4874L119.036 28.5359H120.278V21.8694H118.782H118.796ZM122.155 28.5359H125.147C127.292 28.5359 128.773 27.2198 128.773 25.2027C128.773 23.1856 127.306 21.8694 125.147 21.8694H122.155V28.5359ZM123.679 27.277V23.1426H125.062C126.36 23.1426 127.221 23.9295 127.221 25.2027C127.221 26.4759 126.36 27.2627 125.062 27.2627H123.679V27.277ZM132.358 28.6504C134.235 28.6504 135.152 27.6919 135.152 26.5903C135.152 24.144 131.328 24.9881 131.328 23.7578C131.328 23.3429 131.68 22.9996 132.569 22.9996C133.148 22.9996 133.783 23.1713 134.39 23.5289L134.856 22.3558C134.249 21.9696 133.402 21.7693 132.569 21.7693C130.707 21.7693 129.804 22.7135 129.804 23.8436C129.804 26.3185 133.628 25.4602 133.628 26.7048C133.628 27.1196 133.261 27.4201 132.358 27.4201C131.568 27.4201 130.749 27.1339 130.185 26.7191L129.662 27.8778C130.241 28.3356 131.299 28.6504 132.344 28.6504H132.358Z" fill="#F16856"/>
<path d="M68.5017 13.1001V15.7324H65.5241V13.1001H64V19.7666H65.5241V17.0342H68.5158V19.7666H70.0399V13.1001H68.5158H68.5017ZM74.725 19.8811C76.5878 19.8811 77.7026 18.7938 77.7026 16.8339V13.1001H76.2068V16.7767C76.2068 18.0356 75.6705 18.5649 74.7391 18.5649C73.8077 18.5649 73.2715 18.0356 73.2715 16.7767V13.1001H71.7474V16.8339C71.7474 18.7938 72.8622 19.8811 74.725 19.8811ZM79.4384 19.7666H80.9624V13.1001H79.4384V19.7666ZM84.9561 19.8811C86.833 19.8811 87.7502 18.9226 87.7502 17.821C87.7502 15.3748 83.9259 16.2188 83.9259 14.9885C83.9259 14.5736 84.2787 14.2303 85.1678 14.2303C85.7464 14.2303 86.3814 14.402 86.9882 14.7596L87.4539 13.5865C86.8471 13.2003 86.0004 13 85.1678 13C83.305 13 82.4019 13.9442 82.4019 15.0743C82.4019 17.5492 86.2262 16.6909 86.2262 17.9355C86.2262 18.3504 85.8593 18.6508 84.9561 18.6508C84.1658 18.6508 83.3474 18.3647 82.7829 17.9498L82.2607 19.1086C82.8393 19.5663 83.8977 19.8811 84.942 19.8811H84.9561ZM96.3585 13.1001L94.3264 17.864L92.3225 13.1001H90.6855L93.522 19.7666H95.0179L97.8684 13.1001H96.3585ZM103.118 19.7666H104.713L101.777 13.1001H100.282L97.3463 19.7666H98.8986L99.4772 18.336H102.525L103.104 19.7666H103.118ZM99.9711 17.163L101.015 14.6166L102.06 17.163H99.9711ZM110.16 13.1001V17.1487L106.886 13.1001H105.63V19.7666H107.126V15.7181L110.4 19.7666H111.642V13.1001H110.146H110.16ZM120.49 13.1001V15.7324H117.498V13.1001H115.974V19.7666H117.498V17.0342H120.49V19.7666H122.014V13.1001H120.49ZM125.302 18.522V16.977H128.35V15.7753H125.302V14.3304H128.759V13.1001H123.792V19.7666H128.886V18.5363H125.302V18.522ZM131.737 19.7523H133.261V14.3447H135.364V13.0858H129.634V14.3447H131.737V19.7523Z" fill="#F16856"/>
<path d="M51.9746 0.888916H32.7825C31.3854 0.888916 30.2564 2.14782 30.2564 3.67854V18.7997H24.3577V0.888916H12.2074C5.49014 0.888916 0.0429688 6.39663 0.0429688 13.2062V42.0752C0.0429688 48.8847 5.47603 54.3925 12.1933 54.3925C18.9105 54.3925 24.3436 48.8847 24.3436 42.0752V34.6791H30.2423V51.6028C30.2423 53.1479 31.3713 54.3925 32.7684 54.3925H51.9605C53.3576 54.3925 54.4865 53.1336 54.4865 51.6028V3.67854C54.4865 2.13352 53.3576 0.888916 51.9605 0.888916H51.9746ZM53.1459 51.6028C53.1459 52.3897 52.6237 53.0191 51.9746 53.0191H32.7825C32.1333 53.0191 31.6112 52.3897 31.6112 51.6028V33.3058H19.856L36.5362 18.814H31.6112V3.67854C31.6112 2.89172 32.1333 2.26227 32.7825 2.26227H51.9746C52.6237 2.26227 53.1459 2.89172 53.1459 3.67854V51.6028Z" fill="#F16856"/>
<path d="M70.3503 33.9146V42.0545H124.794V33.9146H70.3503Z" fill="#F16856"/>
<path d="M83.4038 37.8061C83.813 37.5915 84.0811 37.1909 84.0811 36.6759C84.0811 35.8748 83.432 35.3455 82.1619 35.3455H79.6782V40.4956H82.303C83.6437 40.4956 84.3351 39.9806 84.3351 39.0936C84.3351 38.4499 83.9682 38.0064 83.4038 37.8204V37.8061ZM82.0067 36.2325C82.5853 36.2325 82.8957 36.4327 82.8957 36.8333C82.8957 37.2339 82.5853 37.4484 82.0067 37.4484H80.8354V36.2325H82.0067ZM82.2042 39.58H80.8354V38.3068H82.2042C82.8111 38.3068 83.1356 38.5071 83.1356 38.9506C83.1356 39.394 82.8111 39.58 82.2042 39.58ZM89.9375 40.4813L88.7945 38.8218C89.4577 38.5357 89.8388 37.9635 89.8388 37.1909C89.8388 36.0322 88.992 35.3312 87.6373 35.3312H85.4359V40.4813H86.6071V39.0507H87.6938L88.6675 40.4813H89.9234H89.9375ZM88.6534 37.2053C88.6534 37.7632 88.2865 38.1065 87.5668 38.1065H86.6071V36.3183H87.5668C88.2865 36.3183 88.6534 36.6473 88.6534 37.2196V37.2053ZM93.1974 40.5671C94.6368 40.5671 95.4976 39.7231 95.4976 38.221V35.3455H94.3404V38.178C94.3404 39.1508 93.9312 39.5657 93.2115 39.5657C92.4918 39.5657 92.0825 39.1651 92.0825 38.178V35.3455H90.9113V38.221C90.9113 39.7374 91.7721 40.5671 93.2115 40.5671H93.1974ZM98.5317 40.5671C99.9852 40.5671 100.691 39.8375 100.691 38.9792C100.691 37.0908 97.7414 37.7489 97.7414 36.7904C97.7414 36.4614 98.0095 36.2039 98.701 36.2039C99.1526 36.2039 99.6324 36.3326 100.112 36.6044L100.479 35.7031C100.013 35.4027 99.3501 35.2454 98.7151 35.2454C97.2757 35.2454 96.5701 35.975 96.5701 36.8476C96.5701 38.7646 99.5195 38.0922 99.5195 39.065C99.5195 39.3797 99.2373 39.6229 98.5458 39.6229C97.939 39.6229 97.3039 39.4083 96.8665 39.0936L96.4713 39.9949C96.9229 40.3525 97.7273 40.5957 98.5317 40.5957V40.5671ZM103.4 40.5671C104.854 40.5671 105.559 39.8375 105.559 38.9792C105.559 37.0908 102.61 37.7489 102.61 36.7904C102.61 36.4614 102.878 36.2039 103.57 36.2039C104.021 36.2039 104.501 36.3326 104.981 36.6044L105.348 35.7031C104.882 35.4027 104.219 35.2454 103.584 35.2454C102.144 35.2454 101.439 35.975 101.439 36.8476C101.439 38.7646 104.388 38.0922 104.388 39.065C104.388 39.3797 104.106 39.6229 103.414 39.6229C102.808 39.6229 102.173 39.4083 101.735 39.0936L101.34 39.9949C101.791 40.3525 102.596 40.5957 103.4 40.5957V40.5671ZM107.775 39.5228V38.3354H110.132V37.4055H107.775V36.2897H110.442V35.3312H106.604V40.4813H110.527V39.5228H107.761H107.775ZM111.726 40.4813H115.452V39.5085H112.912V35.3312H111.74V40.4813H111.726Z" fill="white"/>
</svg>
