<svg width="179" height="55" viewBox="0 0 179 55" fill="none" xmlns="http://www.w3.org/2000/svg">
<path d="M76.0032 19.1372V25.6091L70.9417 19.1372H69V29.7942H71.3126V23.3222L76.3741 29.7942H78.2939V19.1372H75.9814H76.0032ZM83.5299 27.8046V25.3347H88.2424V23.4137H83.5299V21.1039H88.875V19.1143H81.1956V29.7713H89.0714V27.7817H83.5299V27.8046ZM91.4712 29.7942H96.0964C99.4125 29.7942 101.703 27.6902 101.703 24.4657C101.703 21.2412 99.4344 19.1372 96.0964 19.1372H91.4712V29.7942ZM93.8275 27.7817V21.1726H95.9655C97.9726 21.1726 99.3035 22.4304 99.3035 24.4657C99.3035 26.501 97.9726 27.7588 95.9655 27.7588H93.8275V27.7817ZM106.263 27.8274V25.3576H110.975V23.4366H106.263V21.1268H111.608V19.1372H103.929V29.7942H111.804V27.8046H106.263V27.8274ZM123.193 29.8171L120.924 26.3867C122.255 25.7921 123.018 24.6258 123.018 23.0249C123.018 20.6466 121.317 19.1601 118.611 19.1601H114.204V29.8171H116.56V26.8441H118.72L120.684 29.8171H123.215H123.193ZM120.618 23.0249C120.618 24.1913 119.898 24.8773 118.459 24.8773H116.539V21.1726H118.459C119.898 21.1726 120.618 21.8586 120.618 23.0249ZM125.331 29.8171H132.77V27.8046H127.665V19.1601H125.309V29.8171H125.331ZM142.719 29.8171H145.184L140.646 19.1601H138.334L133.796 29.8171H136.196L137.09 27.5301H141.802L142.697 29.8171H142.719ZM137.854 25.6549L139.468 21.5842L141.083 25.6549H137.854ZM153.714 19.1601V25.632L148.653 19.1601H146.711V29.8171H149.024V23.3451L154.085 29.8171H156.005V19.1601H153.693H153.714ZM158.907 29.8171H163.532C166.848 29.8171 169.139 27.7131 169.139 24.4886C169.139 21.264 166.87 19.1601 163.532 19.1601H158.907V29.8171ZM161.263 27.8046V21.1954H163.401C165.408 21.1954 166.739 22.4532 166.739 24.4886C166.739 26.5239 165.408 27.7817 163.401 27.7817H161.263V27.8046ZM174.68 30C177.582 30 179 28.4678 179 26.7069C179 22.7963 173.088 24.1455 173.088 22.1788C173.088 21.5156 173.633 20.9667 175.008 20.9667C175.902 20.9667 176.884 21.2412 177.822 21.8129L178.542 19.9376C177.604 19.3202 176.295 19 175.008 19C172.128 19 170.731 20.5094 170.731 22.316C170.731 26.2724 176.644 24.9002 176.644 26.8898C176.644 27.553 176.077 28.0333 174.68 28.0333C173.459 28.0333 172.193 27.5759 171.321 26.9127L170.513 28.7651C171.408 29.4969 173.044 30 174.658 30H174.68Z" fill="#F16856"/>
<path d="M75.9389 6.16008V10.368H71.3492V6.16008H69V16.817H71.3492V12.4491H75.9606V16.817H78.3099V6.16008H75.9606H75.9389ZM85.5315 17C88.4028 17 90.1212 15.262 90.1212 12.1289V6.16008H87.8155V12.0374C87.8155 14.0499 86.9889 14.896 85.5533 14.896C84.1177 14.896 83.2911 14.0499 83.2911 12.0374V6.16008H80.9419V12.1289C80.9419 15.262 82.6603 17 85.5315 17ZM92.7967 16.817H95.1459V6.16008H92.7967V16.817ZM101.302 17C104.195 17 105.609 15.4678 105.609 13.7069C105.609 9.79625 99.7139 11.1455 99.7139 9.17879C99.7139 8.51559 100.258 7.96674 101.628 7.96674C102.52 7.96674 103.499 8.24116 104.434 8.81289L105.152 6.93763C104.217 6.32017 102.911 6 101.628 6C98.7568 6 97.3646 7.50936 97.3646 9.31601C97.3646 13.2723 103.259 11.9002 103.259 13.8898C103.259 14.553 102.694 15.0333 101.302 15.0333C100.084 15.0333 98.822 14.5759 97.9519 13.9127L97.1471 15.7651C98.039 16.4969 99.6704 17 101.28 17H101.302ZM118.877 6.16008L115.745 13.7755L112.656 6.16008H110.133L114.505 16.817H116.811L121.205 6.16008H118.877ZM129.297 16.817H131.755L127.23 6.16008H124.924L120.4 16.817H122.793L123.685 14.5301H128.383L129.275 16.817H129.297ZM124.446 12.6549L126.056 8.5842L127.665 12.6549H124.446ZM140.151 6.16008V12.632L135.104 6.16008H133.168V16.817H135.474V10.3451L140.521 16.817H142.435V6.16008H140.129H140.151ZM156.073 6.16008V10.368H151.462V6.16008H149.113V16.817H151.462V12.4491H156.073V16.817H158.423V6.16008H156.073ZM163.491 14.8274V12.3576H168.189V10.4366H163.491V8.12682H168.82V6.16008H161.163V16.817H169.016V14.8503H163.491V14.8274ZM173.41 16.7942H175.759V8.14968H179V6.13722H170.169V8.14968H173.41V16.7942Z" fill="#F16856"/>
<path d="M51.9746 0.888916H32.7825C31.3854 0.888916 30.2564 2.14782 30.2564 3.67854V18.7997H24.3577V0.888916H12.2074C5.49014 0.888916 0.0429688 6.39663 0.0429688 13.2062V42.0752C0.0429688 48.8847 5.47603 54.3925 12.1933 54.3925C18.9105 54.3925 24.3436 48.8847 24.3436 42.0752V34.6791H30.2423V51.6028C30.2423 53.1479 31.3713 54.3925 32.7684 54.3925H51.9605C53.3576 54.3925 54.4865 53.1336 54.4865 51.6028V3.67854C54.4865 2.13352 53.3576 0.888916 51.9605 0.888916H51.9746ZM53.1459 51.6028C53.1459 52.3897 52.6237 53.0191 51.9746 53.0191H32.7825C32.1333 53.0191 31.6112 52.3897 31.6112 51.6028V33.3058H19.856L36.5362 18.814H31.6112V3.67854C31.6112 2.89172 32.1333 2.26227 32.7825 2.26227H51.9746C52.6237 2.26227 53.1459 2.89172 53.1459 3.67854V51.6028Z" fill="#F16856"/>
<path d="M78 38V51H164V38H78Z" fill="#F16856"/>
<path d="M99.6237 44.3075C100.241 43.9465 100.646 43.2727 100.646 42.4064C100.646 41.0588 99.6663 40.1684 97.7491 40.1684H94V48.8316H97.9621C99.9858 48.8316 101.03 47.9652 101.03 46.4733C101.03 45.3904 100.476 44.6444 99.6237 44.3315V44.3075ZM97.5148 41.6604C98.3882 41.6604 98.8568 41.9973 98.8568 42.6711C98.8568 43.3449 98.3882 43.7059 97.5148 43.7059H95.7467V41.6604H97.5148ZM97.813 47.2914H95.7467V45.1497H97.813C98.729 45.1497 99.2189 45.4866 99.2189 46.2326C99.2189 46.9786 98.729 47.2914 97.813 47.2914ZM109.486 48.8075L107.761 46.016C108.762 45.5348 109.337 44.5722 109.337 43.2727C109.337 41.3235 108.059 40.1444 106.014 40.1444H102.691V48.8075H104.459V46.4011H106.099L107.569 48.8075H109.465H109.486ZM107.548 43.2968C107.548 44.2353 106.994 44.8128 105.908 44.8128H104.459V41.8048H105.908C106.994 41.8048 107.548 42.3583 107.548 43.3209V43.2968ZM114.407 48.9519C116.58 48.9519 117.879 47.5321 117.879 45.0053V40.1684H116.133V44.9332C116.133 46.5695 115.515 47.2674 114.428 47.2674C113.342 47.2674 112.724 46.5936 112.724 44.9332V40.1684H110.956V45.0053C110.956 47.5562 112.256 48.9519 114.428 48.9519H114.407ZM122.459 48.9519C124.653 48.9519 125.718 47.7246 125.718 46.2807C125.718 43.1043 121.266 44.2112 121.266 42.5989C121.266 42.0455 121.671 41.6123 122.715 41.6123C123.396 41.6123 124.121 41.8289 124.845 42.2861L125.399 40.7701C124.696 40.2647 123.695 40 122.736 40C120.563 40 119.498 41.2273 119.498 42.6952C119.498 45.9198 123.95 44.7888 123.95 46.4251C123.95 46.9545 123.524 47.3636 122.48 47.3636C121.564 47.3636 120.606 47.0027 119.946 46.4733L119.349 47.9893C120.031 48.5909 121.245 49 122.459 49V48.9519ZM129.808 48.9519C132.002 48.9519 133.067 47.7246 133.067 46.2807C133.067 43.1043 128.615 44.2112 128.615 42.5989C128.615 42.0455 129.02 41.6123 130.064 41.6123C130.746 41.6123 131.47 41.8289 132.194 42.2861L132.748 40.7701C132.045 40.2647 131.044 40 130.085 40C127.912 40 126.847 41.2273 126.847 42.6952C126.847 45.9198 131.299 44.7888 131.299 46.4251C131.299 46.9545 130.873 47.3636 129.83 47.3636C128.914 47.3636 127.955 47.0027 127.295 46.4733L126.698 47.9893C127.38 48.5909 128.594 49 129.808 49V48.9519ZM136.412 47.1952V45.1979H139.969V43.6337H136.412V41.7567H140.438V40.1444H134.644V48.8075H140.566V47.1952H136.391H136.412ZM142.376 48.8075H148V47.1711H144.166V40.1444H142.398V48.8075H142.376Z" fill="white"/>
</svg>
