<?xml version="1.0" encoding="utf-8"?>
<!-- Generator: Adobe Illustrator 27.7.0, SVG Export Plug-In . SVG Version: 6.00 Build 0)  -->
<svg version="1.1" id="Layer_1" xmlns="http://www.w3.org/2000/svg" xmlns:xlink="http://www.w3.org/1999/xlink" x="0px" y="0px"
	 viewBox="0 0 148 57.3" style="enable-background:new 0 0 148 57.3;" xml:space="preserve">
<style type="text/css">
	.st0{fill:#F16856;}
	.st1{fill:#FFFFFF;}
</style>
<path class="st0" d="M71.2,25.3v4.4l-3.5-4.4h-1.4v7.2h1.6v-4.4l3.5,4.4h1.3v-7.2H71.2L71.2,25.3z M76.4,31.1v-1.7h3.3v-1.3h-3.3
	v-1.6h3.7v-1.3h-5.4v7.2h5.5v-1.3L76.4,31.1L76.4,31.1z M82,32.5h3.2c2.3,0,3.9-1.4,3.9-3.6c0-2.2-1.6-3.6-3.9-3.6H82V32.5z
	 M83.6,31.1v-4.5h1.5c1.4,0,2.3,0.9,2.3,2.2c0,1.4-0.9,2.2-2.3,2.2L83.6,31.1L83.6,31.1z M92.3,31.2v-1.7h3.3v-1.3h-3.3v-1.6h3.7
	v-1.3h-5.4v7.2h5.5v-1.3L92.3,31.2L92.3,31.2z M104.2,32.5l-1.6-2.3c0.9-0.4,1.5-1.2,1.5-2.3c0-1.6-1.2-2.6-3.1-2.6h-3.1v7.2h1.6v-2
	h1.5l1.4,2H104.2L104.2,32.5z M102.4,27.9c0,0.8-0.5,1.3-1.5,1.3h-1.3v-2.5h1.3C101.9,26.7,102.4,27.1,102.4,27.9z M105.7,32.5h5.2
	v-1.4h-3.6v-5.9h-1.6L105.7,32.5L105.7,32.5z M117.9,32.5h1.7l-3.2-7.2h-1.6l-3.2,7.2h1.7l0.6-1.5h3.3L117.9,32.5L117.9,32.5z
	 M114.5,29.7l1.1-2.8l1.1,2.8H114.5z M125.6,25.3v4.4l-3.5-4.4h-1.4v7.2h1.6v-4.4l3.5,4.4h1.3v-7.2H125.6L125.6,25.3z M129.2,32.5
	h3.2c2.3,0,3.9-1.4,3.9-3.6c0-2.2-1.6-3.6-3.9-3.6h-3.2V32.5z M130.9,31.1v-4.5h1.5c1.4,0,2.3,0.9,2.3,2.2s-0.9,2.2-2.3,2.2
	L130.9,31.1L130.9,31.1z M140.2,32.6c2,0,3-1,3-2.2c0-2.6-4.1-1.7-4.1-3.1c0-0.4,0.4-0.8,1.3-0.8c0.6,0,1.3,0.2,2,0.6l0.5-1.3
	c-0.7-0.4-1.6-0.6-2.5-0.6c-2,0-3,1-3,2.2c0,2.7,4.1,1.7,4.1,3.1c0,0.4-0.4,0.8-1.4,0.8c-0.9,0-1.7-0.3-2.4-0.8l-0.6,1.3
	C138,32.3,139.1,32.6,140.2,32.6L140.2,32.6z"/>
<path class="st0" d="M71.1,15.8v2.8h-3.2v-2.8h-1.6V23h1.6v-3h3.2v3h1.6v-7.2H71.1L71.1,15.8z M77.9,23.1c2,0,3.2-1.2,3.2-3.3v-4
	h-1.6v4c0,1.4-0.6,1.9-1.6,1.9s-1.6-0.6-1.6-1.9v-4h-1.6v4C74.6,22,75.8,23.1,77.9,23.1z M83,23h1.6v-7.2H83V23z M88.9,23.1
	c2,0,3-1,3-2.2c0-2.6-4.1-1.7-4.1-3.1c0-0.4,0.4-0.8,1.3-0.8c0.6,0,1.3,0.2,2,0.6l0.5-1.3c-0.7-0.4-1.6-0.6-2.5-0.6c-2,0-3,1-3,2.2
	c0,2.7,4.1,1.7,4.1,3.1c0,0.4-0.4,0.8-1.4,0.8c-0.9,0-1.7-0.3-2.4-0.8L86,22.3C86.6,22.8,87.8,23.1,88.9,23.1L88.9,23.1z
	 M101.3,15.8L99.1,21l-2.2-5.2h-1.8l3.1,7.2h1.6l3.1-7.2H101.3z M108.6,23h1.7l-3.2-7.2h-1.6l-3.2,7.2h1.7l0.6-1.5h3.3L108.6,23
	L108.6,23z M105.2,20.2l1.1-2.8l1.1,2.8H105.2z M116.2,15.8v4.4l-3.5-4.4h-1.4V23h1.6v-4.4l3.5,4.4h1.3v-7.2H116.2L116.2,15.8z
	 M127.4,15.8v2.8h-3.2v-2.8h-1.6V23h1.6v-3h3.2v3h1.6v-7.2H127.4z M132.6,21.7V20h3.3v-1.3h-3.3v-1.6h3.7v-1.3H131V23h5.5v-1.3
	L132.6,21.7L132.6,21.7z M139.6,23h1.6v-5.9h2.3v-1.4h-6.2v1.4h2.3V23z"/>
<path class="st0" d="M54.4,2.3H35.2c-1.4,0-2.5,1.3-2.5,2.8v15.1h-5.9V2.3H14.6C7.9,2.3,2.4,7.8,2.4,14.6v28.9
	c0,6.8,5.4,12.3,12.2,12.3c6.7,0,12.2-5.5,12.2-12.3v-7.4h5.9V53c0,1.5,1.1,2.8,2.5,2.8h19.2c1.4,0,2.5-1.3,2.5-2.8V5.1
	C56.9,3.6,55.8,2.3,54.4,2.3L54.4,2.3z M55.6,53c0,0.8-0.5,1.4-1.2,1.4H35.2c-0.6,0-1.2-0.6-1.2-1.4V34.7H22.3l16.7-14.5H34V5.1
	c0-0.8,0.5-1.4,1.2-1.4h19.2c0.6,0,1.2,0.6,1.2,1.4V53z"/>
<path class="st0" d="M73.1,38.3v8.8h58.9v-8.8H73.1z"/>
<path class="st1" d="M87.3,42.5c0.4-0.2,0.7-0.7,0.7-1.2c0-0.9-0.7-1.4-2.1-1.4h-2.7v5.6h2.8c1.5,0,2.2-0.6,2.2-1.5
	C88.3,43.2,87.9,42.8,87.3,42.5L87.3,42.5z M85.7,40.8c0.6,0,1,0.2,1,0.7c0,0.4-0.3,0.7-1,0.7h-1.3v-1.3H85.7z M86,44.5h-1.5v-1.4
	H86c0.7,0,1,0.2,1,0.7C87,44.3,86.6,44.5,86,44.5z M94.3,45.4l-1.2-1.8c0.7-0.3,1.1-0.9,1.1-1.8c0-1.3-0.9-2-2.4-2h-2.4v5.6h1.3
	v-1.5h1.2l1.1,1.5H94.3L94.3,45.4z M92.9,41.9c0,0.6-0.4,1-1.2,1h-1v-1.9h1C92.5,40.9,92.9,41.3,92.9,41.9L92.9,41.9z M97.9,45.5
	c1.6,0,2.5-0.9,2.5-2.5v-3.1h-1.3v3.1c0,1.1-0.4,1.5-1.2,1.5c-0.8,0-1.2-0.4-1.2-1.5v-3.1h-1.3V43C95.4,44.6,96.3,45.5,97.9,45.5
	L97.9,45.5z M103.6,45.5c1.6,0,2.3-0.8,2.3-1.7c0-2-3.2-1.3-3.2-2.4c0-0.4,0.3-0.6,1-0.6c0.5,0,1,0.1,1.5,0.4l0.4-1
	c-0.5-0.3-1.2-0.5-1.9-0.5c-1.6,0-2.3,0.8-2.3,1.7c0,2.1,3.2,1.3,3.2,2.4c0,0.3-0.3,0.6-1.1,0.6c-0.7,0-1.3-0.2-1.8-0.6l-0.4,1
	C101.9,45.3,102.8,45.6,103.6,45.5L103.6,45.5z M108.9,45.5c1.6,0,2.3-0.8,2.3-1.7c0-2-3.2-1.3-3.2-2.4c0-0.4,0.3-0.6,1-0.6
	c0.5,0,1,0.1,1.5,0.4l0.4-1c-0.5-0.3-1.2-0.5-1.9-0.5c-1.6,0-2.3,0.8-2.3,1.7c0,2.1,3.2,1.3,3.2,2.4c0,0.3-0.3,0.6-1.1,0.6
	c-0.7,0-1.3-0.2-1.8-0.6l-0.4,1C107.2,45.3,108,45.6,108.9,45.5L108.9,45.5z M113.6,44.4v-1.3h2.6v-1h-2.6v-1.2h2.9v-1h-4.2v5.6h4.2
	v-1H113.6L113.6,44.4z M117.9,45.4h4v-1.1h-2.7v-4.5h-1.3L117.9,45.4L117.9,45.4z"/>
</svg>
