<svg width="200" height="121" viewBox="0 0 200 121" fill="none" xmlns="http://www.w3.org/2000/svg">
<path d="M1.83359e-06 56.4402C1.83359e-06 48.0432 3.19826 40.1546 8.99618 34.2196C14.8055 28.2731 22.5303 25 30.7512 25H121.249C129.47 25 137.195 28.2731 143.004 34.2196C148.807 40.1546 152 48.0432 152 56.4402C152 64.8372 148.807 72.7258 143.004 78.6608C137.195 84.6016 129.47 87.8747 121.249 87.8747H102.464L102.436 121L69.1132 87.8747H30.7512C22.5303 87.8747 14.8055 84.6016 8.99618 78.6608C3.19256 72.7258 1.83359e-06 64.8315 1.83359e-06 56.4402Z" fill="#F16856"/>
<path d="M61 28.8202C61 21.1229 63.9247 13.8917 69.2268 8.45127C74.5392 3.00036 81.6034 0 89.1211 0H171.879C179.397 0 186.461 3.00036 191.773 8.45127C197.08 13.8917 200 21.1229 200 28.8202C200 36.5174 197.08 43.7487 191.773 49.1891C186.461 54.6348 179.397 57.6351 171.879 57.6351H154.701L154.675 88L124.202 57.6351H89.1211C81.6034 57.6351 74.5392 54.6348 69.2268 49.1891C63.9195 43.7487 61 36.5122 61 28.8202Z" fill="white"/>
</svg>
