<?xml version="1.0" encoding="utf-8"?>
<!-- Generator: Adobe Illustrator 27.7.0, SVG Export Plug-In . SVG Version: 6.00 Build 0)  -->
<svg version="1.1" id="Layer_1" xmlns="http://www.w3.org/2000/svg" xmlns:xlink="http://www.w3.org/1999/xlink" x="0px" y="0px"
	 viewBox="0 0 490 505.4" style="enable-background:new 0 0 490 505.4;" xml:space="preserve">
<style type="text/css">
	.st0{fill:#EF6956;}
	.st1{fill:#EBBA5B;}
	.st2{fill:#FFFFFF;}
	.st3{font-family:'Korolev-Bold';}
	.st4{font-size:137.5291px;}
	.st5{font-size:69.3401px;}
	.st6{fill:#88C9B9;}
	.st7{font-size:44.1785px;}
	.st8{font-size:38.4267px;}
</style>
<g>
	<path class="st0" d="M290,119.7c0-17.5-6.4-33.9-18.1-46.2c-11.7-12.4-27.2-19.2-43.8-19.2h-161c-16.5,0-32.1,6.8-43.8,19.2
		C11.6,85.8,5.2,102.3,5.2,119.7c0,17.5,6.4,33.9,18.1,46.2c11.7,12.4,27.3,19.2,43.8,19.2h37.8L105,254l67.1-68.9h56.1
		c16.5,0,32.1-6.8,43.8-19.2C283.6,153.6,290,137.2,290,119.7L290,119.7z"/>
</g>
<g>
	<path class="st1" d="M485,416.6V213.2c0-8.7-6.9-15.8-15.3-15.8H237.2c-8.4,0-15.3,7.1-15.3,15.8v203.4c0,8.7,6.9,15.8,15.3,15.8
		h83.7l0.4,68.3l67-68.3h81.4C478.2,432.5,485,425.4,485,416.6L485,416.6z"/>
</g>
<g>
	<path class="st0" d="M146.5,254l0.4,68.3h49.2c8.4,0,15.3,7.1,15.3,15.8v132.1c0,8.7-6.9,15.8-15.3,15.8H22.7
		c-8.4,0-15.3-7.1-15.3-15.8v-132c0-8.7,6.9-15.8,15.3-15.8h56.7L146.5,254L146.5,254z M196.1,481.4c5.9,0,10.7-5,10.7-11.1V338.2
		c0-6.1-4.8-11.1-10.7-11.1h-53.8l-0.4-61.8l-60.6,61.8H22.7c-5.9,0-10.7,5-10.7,11.1v132.1c0,6.1,4.8,11.1,10.7,11.1L196.1,481.4
		L196.1,481.4z"/>
</g>
<text transform="matrix(0.9661 0 0 1 290.0352 359.4238)" class="st2 st3 st4">??</text>
<text transform="matrix(0.9661 0 0 1 56.9502 142.272)" class="st2 st3 st5">Waar?</text>
<g>
	<path class="st6" d="M308.1,137.8c0-11.3,4.2-22,11.8-30c7.6-8,17.7-12.4,28.4-12.4H441c10.7,0,20.8,4.4,28.4,12.4
		s11.8,18.7,11.8,30s-4.2,22-11.8,30c-7.6,8-17.7,12.4-28.4,12.4h-24.6v44.7l-43.6-44.7h-24.5c-10.7,0-20.8-4.4-28.4-12.4
		C312.3,159.8,308.1,149.2,308.1,137.8L308.1,137.8z"/>
</g>
<text transform="matrix(0.9661 0 0 1 353.4414 153.0405)" class="st2 st3 st7">Hoe?</text>
<text transform="matrix(0.9661 0 0 1 31.4707 417.9863)" class="st0 st3 st8">Wanneer?</text>
<g>
	<path class="st2" d="M409,52.5V13.6c0-3.4-2.8-6.2-6.2-6.2H291.2c-3.4,0-6.2,2.8-6.2,6.2v38.9c0,3.4,2.8,6.2,6.2,6.2h34l0.2,26.8
		l27.2-26.8h50.2C406.2,58.7,409,55.9,409,52.5L409,52.5z"/>
</g>
<text transform="matrix(0.9661 0 0 1 326.1 48.2709)" class="st0 st3 st7">??</text>
</svg>
